<svg id="Layer_1" enable-background="new 0 0 512 512" height="512" viewBox="0 0 512 512" width="512"
     xmlns="http://www.w3.org/2000/svg">
    <g>
        <circle cx="256" cy="103.811" r="15.704"/>
        <path d="m385.296 88.106c-8.66 0-15.705 7.045-15.705 15.704 0 8.66 7.045 15.705 15.705 15.705 8.659 0 15.704-7.045 15.704-15.705 0-8.659-7.045-15.704-15.704-15.704z"/>
        <path d="m126.704 88.106c-8.659 0-15.704 7.045-15.704 15.704 0 8.66 7.045 15.705 15.704 15.705 8.66 0 15.705-7.045 15.705-15.705 0-8.659-7.045-15.704-15.705-15.704z"/>
        <path d="m400.296 10.485v50.162c17.853 6.223 30.704 23.216 30.704 43.164 0 25.202-20.503 45.705-45.704 45.705-25.202 0-45.705-20.503-45.705-45.705 0-19.948 12.851-36.941 30.705-43.163v-50.163h-99.296v50.162c17.853 6.223 30.704 23.215 30.704 43.163 0 25.202-20.503 45.705-45.704 45.705s-45.704-20.503-45.704-45.705c0-19.948 12.851-36.941 30.704-43.163v-50.162h-99.296v50.162c17.854 6.223 30.705 23.215 30.705 43.163 0 25.202-20.503 45.705-45.705 45.705-25.201 0-45.704-20.503-45.704-45.705 0-19.948 12.851-36.941 30.704-43.163v-50.162h-111.704v491.03h512v-491.03zm-304.296 219.363h320v30h-320zm0 76.201h320v30h-320zm0 76.202h320v30h-320z"/>
    </g>
</svg>